# xmcd CD database file
#
# Track frame offsets:
#	150
#	5053
#	21127
#	39800
#	56452
#	76914
#	88478
#	109452
#	118141
#	136375
#	155504
#	171182
#	192076
#
# Disc length: 2779 seconds
#
# Revision: 0
# Processed by: cddbd v1.5.2PL0 Copyright (c) Steve Scherf et al.
# Submitted via: CDex 1.70beta2
#
DISCID=a90ad90d
DTITLE=Yiruma - Very Best CD3
DYEAR=1900
DGENRE=New Age
TTITLE0=하늘 사이로
TTITLE1=너에게 보낸 내 마음
TTITLE2=슬픔물위에잠들다
TTITLE3=River Flows
TTITLE4=그끝에는내가잊을까
TTITLE5=잊혀지는잊혀질시간들
TTITLE6=To My Heart
TTITLE7=How Could I
TTITLE8=Just for a While
TTITLE9=Dream
TTITLE10=The Things I Really
TTITLE11=Beloved
TTITLE12=어떻게날잊어야 하는지
EXTD=
EXTT0=
EXTT1=
EXTT2=
EXTT3=
EXTT4=
EXTT5=
EXTT6=
EXTT7=
EXTT8=
EXTT9=
EXTT10=
EXTT11=
EXTT12=
PLAYORDER=
